<svg id="Layer_1" enable-background="new 0 0 512 512" height="512" viewBox="0 0 512 512" width="512" xmlns="http://www.w3.org/2000/svg"><g><path d="m504.499 96.2v319.6c0 8.4-6.8 15.2-15.2 15.2h-466.6c-8.4 0-15.2-6.8-15.2-15.2v-319.6c0-8.4 6.8-15.2 15.2-15.2h466.6c8.4 0 15.2 6.8 15.2 15.2z" fill="#ffe150"/><path d="m504.499 96.2v319.6c0 8.4-6.8 15.2-15.2 15.2h-466.6c-8.4 0-15.2-6.8-15.2-15.2v-14.93h467.36v-319.87h14.44c8.4 0 15.2 6.8 15.2 15.2z" fill="#ffc552"/><path d="m64.321 236.274h383.357v127.871h-383.357z" fill="#234063"/><circle cx="124.773" cy="300.209" fill="#46637f" r="78.634"/><circle cx="387.628" cy="300.209" fill="#46637f" r="78.634"/><path d="m353.609 185.55-5 15.63h-185.22l-5-15.63h-120.839v215.32h437.31v-215.32zm-253.42 90.07c6.29-6.29 14.98-10.18 24.58-10.18h262.86c19.2 0 34.77 15.57 34.77 34.77s-15.57 34.77-34.77 34.77h-262.859c-19.2 0-34.76-15.57-34.76-34.77-.001-9.6 3.89-18.29 10.179-24.59z" fill="#ff7680"/><path d="m474.859 185.55v215.32h-437.309v-33.8h390.06c8.76 0 15.86-7.09 15.86-15.85v-165.67z" fill="#f44d90"/><g><path d="m159.54 300.21c0 19.2-15.56 34.77-34.77 34.77-4.36 0-8.53-.8-12.38-2.27-13.09-4.99-22.38-17.66-22.38-32.5s9.29-27.51 22.38-32.5c3.85-1.47 8.02-2.27 12.38-2.27 19.209 0 34.77 15.57 34.77 34.77z" fill="#ffe150"/><path d="m159.54 300.21c0 19.2-15.56 34.77-34.77 34.77-4.36 0-8.53-.8-12.38-2.27 13.09-4.99 22.38-17.66 22.38-32.5s-9.29-27.51-22.38-32.5c3.85-1.47 8.02-2.27 12.38-2.27 19.209 0 34.77 15.57 34.77 34.77z" fill="#ffc552"/></g><g><path d="m422.399 300.209c0 19.2-15.56 34.77-34.77 34.77-4.36 0-8.53-.8-12.38-2.27-13.09-4.99-22.38-17.66-22.38-32.5s9.29-27.51 22.38-32.5c3.85-1.47 8.02-2.27 12.38-2.27 19.21 0 34.77 15.57 34.77 34.77z" fill="#ffe150"/><path d="m422.399 300.209c0 19.2-15.56 34.77-34.77 34.77-4.36 0-8.53-.8-12.38-2.27 13.09-4.99 22.38-17.66 22.38-32.5s-9.29-27.51-22.38-32.5c3.85-1.47 8.02-2.27 12.38-2.27 19.21 0 34.77 15.57 34.77 34.77z" fill="#ffc552"/></g><path d="m392.396 142.432h-272.39l-20-61.432h312.39z" fill="#ffc552"/></g><g><circle cx="155.5" cy="110.845" r="7.5"/><circle cx="356.5" cy="110.845" r="7.5"/><path d="m489.302 73.5h-466.604c-12.515 0-22.698 10.183-22.698 22.698v220.449c0 4.142 3.357 7.5 7.5 7.5s7.5-3.358 7.5-7.5v-220.449c0-4.245 3.453-7.698 7.698-7.698h71.862l18.314 56.253c1.006 3.088 3.884 5.178 7.132 5.178h272.391c3.248 0 6.126-2.09 7.132-5.178l18.314-56.253h71.459c4.245 0 7.698 3.454 7.698 7.698v319.604c0 4.245-3.453 7.698-7.698 7.698h-40.563c-4.143 0-7.5 3.358-7.5 7.5s3.357 7.5 7.5 7.5h40.563c12.516 0 22.698-10.182 22.698-22.698v-319.604c0-12.515-10.183-22.698-22.698-22.698zm-102.351 61.432h-261.5l-15.116-46.432h291.732z"/><path d="m413.741 423.5h-391.043c-4.245 0-7.698-3.453-7.698-7.698v-63.826c0-4.142-3.357-7.5-7.5-7.5s-7.5 3.358-7.5 7.5v63.826c0 12.516 10.183 22.698 22.698 22.698h391.043c4.143 0 7.5-3.358 7.5-7.5s-3.357-7.5-7.5-7.5z"/><path d="m82.506 300.209c0 23.307 18.961 42.268 42.268 42.268h262.855c23.307 0 42.268-18.961 42.268-42.268 0-23.306-18.961-42.267-42.268-42.267-.026 0-.051 0-.077 0h-262.779c-23.306 0-42.267 18.961-42.267 42.267zm305.047-27.267h.076c15.035 0 27.268 12.232 27.268 27.267s-12.232 27.268-27.268 27.268-27.268-12.232-27.268-27.268c0-15.01 12.191-27.226 27.192-27.267zm-65.65 0h33.453c-6.233 7.365-9.995 16.885-9.995 27.267s3.763 19.902 9.996 27.268h-33.454c-3.591-8.621-5.408-17.773-5.408-27.268s1.817-18.646 5.408-27.267zm-16.011 0c-2.921 8.732-4.397 17.863-4.397 27.267 0 9.405 1.475 18.535 4.397 27.268h-99.382c2.921-8.733 4.397-17.863 4.397-27.268 0-9.404-1.475-18.535-4.397-27.267zm-148.847 0h33.454c3.591 8.621 5.408 17.772 5.408 27.267s-1.817 18.646-5.408 27.268h-33.454c6.233-7.366 9.996-16.885 9.996-27.268 0-10.382-3.762-19.902-9.996-27.267zm-5.004 27.267c0 15.036-12.232 27.268-27.268 27.268s-27.268-12.232-27.268-27.268c0-15.035 12.232-27.267 27.268-27.267s27.268 12.232 27.268 27.267z"/><path d="m238.585 193.678h-69.72l-3.331-10.411c-.994-3.106-3.882-5.214-7.144-5.214h-120.845c-4.143 0-7.5 3.358-7.5 7.5v215.312c0 4.142 3.357 7.5 7.5 7.5h437.313c4.143 0 7.5-3.358 7.5-7.5v-215.312c0-4.142-3.357-7.5-7.5-7.5h-121.249c-3.262 0-6.149 2.108-7.144 5.214l-3.331 10.411h-69.317c-4.143 0-7.5 3.358-7.5 7.5s3.357 7.5 7.5 7.5h74.792c3.262 0 6.149-2.108 7.144-5.214l3.331-10.411h108.273v200.312h-422.312v-200.312h107.871l3.331 10.411c.994 3.106 3.882 5.214 7.144 5.214h75.194c4.143 0 7.5-3.358 7.5-7.5s-3.357-7.5-7.5-7.5z"/></g></svg>