<svg id="Capa_1" enable-background="new 0 0 512 512" height="512" viewBox="0 0 512 512" width="512" xmlns="http://www.w3.org/2000/svg"><g><g><path d="m494.5 377.968-10-267.222c-3.129-1.106-6.493-1.714-10-1.714h-437c-16.569 0-30 13.432-30 30v233.936c0 3.507.608 6.871 1.714 10l470.286 10c8.284 0 15-6.716 15-15z" fill="#f7fafa"/><path d="m484.5 110.746v257.222c0 8.284-6.716 15-15 15h-460.286c4.119 11.651 15.225 20 28.286 20h79.166l139.334-10 138.986 10h79.514c16.569 0 30-13.431 30-30v-233.936c0-13.061-8.349-24.167-20-28.286z" fill="#d2e4e7"/><path d="m358.502 339.731h-220.652l-14.484 43.237 259.62 10z" fill="#d2e4e7"/><path d="m394.986 402.968-21.184-63.237h-15.3l11.173 33.355c1.628 4.859-1.988 9.882-7.112 9.882h-239.197l-6.7 20z" fill="#b4d2d7"/><path d="m232.199 233.381c0-24.911-9.139-50.274-29.108-70.242-17.544-15.027-40.331-24.108-65.242-24.108-55.422 0-100.35 44.928-100.35 100.35 0 24.911 9.081 47.698 24.108 65.242 17.683 17.683 45.331 29.108 70.242 29.108 55.422 0 100.35-44.928 100.35-100.35z" fill="#738c96"/><path d="m203.092 163.139c15.027 17.544 24.108 40.331 24.108 65.242 0 55.422-44.928 100.35-100.35 100.35-24.911 0-47.698-9.081-65.242-24.108 18.405 21.488 45.731 35.108 76.242 35.108 55.422 0 100.35-44.928 100.35-100.35-.001-30.51-13.621-57.837-35.108-76.242z" fill="#607882"/><path d="m177.152 234.032c0-9.617-4.023-21.693-14.165-31.835-7.313-5.139-16.218-8.165-25.835-8.165-24.853 0-45 20.147-45 45 0 9.617 3.026 18.522 8.165 25.835 10.478 10.478 22.218 14.165 31.835 14.165 24.852 0 45-20.147 45-45z" fill="#da8bc1"/><path d="m162.986 202.197c5.139 7.313 8.165 16.218 8.165 25.835 0 24.853-20.147 45-45 45-9.617 0-18.522-3.026-25.835-8.165 8.141 11.586 21.599 19.165 36.835 19.165 24.853 0 45-20.147 45-45 .001-15.236-7.579-28.694-19.165-36.835z" fill="#ca59a6"/><path d="m443.5 233.032c0-17.909-8.763-39.244-21.76-52.24-12.897-10.474-29.332-16.76-47.24-16.76-41.421 0-75 33.579-75 75 0 17.909 6.286 34.344 16.76 47.24 15.052 15.052 34.332 21.76 52.24 21.76 41.421 0 75-33.579 75-75z" fill="#738c96"/><path d="m421.74 180.792c10.474 12.897 16.76 29.332 16.76 47.24 0 41.421-33.579 75-75 75-17.909 0-34.344-6.286-47.24-16.76 13.751 16.932 34.728 27.76 58.24 27.76 41.421 0 75-33.579 75-75 0-23.513-10.827-44.489-27.76-58.24z" fill="#607882"/><circle cx="137.152" cy="239.032" fill="#f7fafa" r="15"/><path d="m414.5 234.032c0-9.617-1.861-19.53-14.165-31.835-7.313-5.139-16.218-8.165-25.835-8.165-24.853 0-45 20.147-45 45 0 9.617 3.026 18.522 8.165 25.835 10.521 10.521 22.218 14.165 31.835 14.165 24.853 0 45-20.147 45-45z" fill="#da8bc1"/><path d="m400.335 202.197c5.139 7.313 8.165 16.218 8.165 25.835 0 24.853-20.147 45-45 45-9.617 0-18.522-3.026-25.835-8.165 8.141 11.586 21.599 19.165 36.835 19.165 24.853 0 45-20.147 45-45 0-15.236-7.579-28.694-19.165-36.835z" fill="#ca59a6"/><circle cx="374.5" cy="239.032" fill="#f7fafa" r="15"/></g><g><path d="m374.5 186.532c-28.949 0-52.5 23.551-52.5 52.5s23.551 52.5 52.5 52.5 52.5-23.551 52.5-52.5-23.551-52.5-52.5-52.5zm0 90c-20.678 0-37.5-16.822-37.5-37.5s16.822-37.5 37.5-37.5 37.5 16.822 37.5 37.5-16.822 37.5-37.5 37.5z"/><path d="m374.5 216.532c-12.407 0-22.5 10.093-22.5 22.5s10.093 22.5 22.5 22.5 22.5-10.093 22.5-22.5-10.093-22.5-22.5-22.5zm0 30c-4.136 0-7.5-3.364-7.5-7.5 0-4.135 3.364-7.5 7.5-7.5s7.5 3.365 7.5 7.5c0 4.136-3.364 7.5-7.5 7.5z"/><circle cx="354.436" cy="372.968" r="8"/><path d="m159.651 239.032c0-12.407-10.093-22.5-22.5-22.5s-22.5 10.093-22.5 22.5 10.093 22.5 22.5 22.5 22.5-10.093 22.5-22.5zm-30 0c0-4.135 3.364-7.5 7.5-7.5s7.5 3.365 7.5 7.5c0 4.136-3.364 7.5-7.5 7.5s-7.5-3.364-7.5-7.5z"/><path d="m474.5 101.532h-166.063c-4.142 0-7.5 3.358-7.5 7.5s3.358 7.5 7.5 7.5h166.063c12.407 0 22.5 10.093 22.5 22.5v52.038c0 4.142 3.358 7.5 7.5 7.5s7.5-3.358 7.5-7.5v-52.038c0-20.678-16.822-37.5-37.5-37.5z"/><path d="m504.5 213.57c-4.142 0-7.5 3.358-7.5 7.5v151.898c0 12.407-10.093 22.5-22.5 22.5h-74.117l-5.025-15h73.493c4.516 0 8.747-2.004 11.608-5.5 2.86-3.495 3.989-8.039 3.096-12.465l-27.947-138.61c-7.129-38.285-40.787-67.361-81.108-67.361-45.491 0-82.5 37.009-82.5 82.5s37.009 82.5 82.5 82.5c33.704 0 62.753-20.316 75.543-49.346l18.808 93.282h-78.518l-9.419-28.119c-1.024-3.057-3.888-5.118-7.112-5.118h-181.13c31.715-18.799 53.027-53.384 53.027-92.85 0-59.468-48.381-107.85-107.85-107.85s-107.849 48.382-107.849 107.851v126.086c0 8.271 6.729 15 15 15h71.294l-5.025 15h-73.769c-12.407 0-22.5-10.093-22.5-22.5v-233.936c0-12.407 10.093-22.5 22.5-22.5h240.937c4.142 0 7.5-3.358 7.5-7.5s-3.358-7.5-7.5-7.5h-240.937c-20.678 0-37.5 16.822-37.5 37.5v233.936c0 20.678 16.822 37.5 37.5 37.5h437c20.678 0 37.5-16.822 37.5-37.5v-151.898c0-4.143-3.358-7.5-7.5-7.5zm-130 92.962c-37.22 0-67.5-30.28-67.5-67.5s30.28-67.5 67.5-67.5 67.5 30.28 67.5 67.5-30.28 67.5-67.5 67.5zm-329.5 58.936v-71.171c1.925 3.24 4.031 6.397 6.311 9.458 13.668 18.346 32.37 31.661 54.083 38.505 3.95 1.245 8.162-.948 9.408-4.899 1.245-3.95-.948-8.162-4.899-9.408-38.82-12.235-64.903-47.829-64.903-88.571 0-51.197 41.652-92.85 92.85-92.85s92.85 41.652 92.85 92.85-41.669 92.85-92.866 92.85c-2.698.022-6.075 1.802-7.15 5.282l-9.365 27.955h-76.319zm82.088 30 16.159-48.237h225.158l16.159 48.237z"/><path d="m189.651 239.032c0-28.949-23.551-52.5-52.5-52.5s-52.5 23.551-52.5 52.5 23.551 52.5 52.5 52.5 52.5-23.551 52.5-52.5zm-90 0c0-20.678 16.822-37.5 37.5-37.5s37.5 16.822 37.5 37.5-16.822 37.5-37.5 37.5-37.5-16.822-37.5-37.5z"/><circle cx="157.216" cy="372.968" r="8"/></g></g></svg>